Coordinates
version=1
nRows=16
nColumns=30
inDegrees=yes

Units are S.I. units (second, meters, Newtons, ...)
Angles are in degrees.

endheader
time	floatyaw	floatroll	floatpitch	floatx	floaty	floatz	pro_sup_l	deviation_l	flexion_l	cmc_flexion_l	cmc_abduction_l	mp_flexion_l	ip_flexion_l	2mcp_flexion_l	2mcp_abduction_l	2pm_flexion_l	2md_flexion_l	3mcp_flexion_l	3mcp_abduction_l	3pm_flexion_l	3md_flexion_l	4mcp_flexion_l	4mcp_abduction_l	4pm_flexion_l	4md_flexion_l	5mcp_flexion_l	5mcp_abduction_l	5pm_flexion_l	5md_flexion_l
-0.495000	-160.147433	-5.066637	-73.570646	0.080583	-0.179948	-0.018543	100.156317	4.738329	0.698380	16.146903	11.265209	-25.857219	-42.938488	28.265604	6.656697	43.648113	29.430858	23.948397	3.890960	43.087729	27.934102	12.319138	-4.200166	50.991063	34.480681	0.561178	-7.665755	59.375649	41.017076
-0.485000	-160.147433	-5.066637	-73.570646	0.080221	-0.179555	-0.018878	100.176862	4.906931	0.598571	16.100443	11.304209	-25.806391	-42.826815	28.252818	6.669034	43.613484	29.399669	23.973552	3.889902	43.073948	27.915099	12.414134	-4.192924	50.879876	34.424054	0.661306	-7.690265	59.335662	40.985906
-0.475000	-160.147433	-5.066637	-73.570646	0.079798	-0.179096	-0.019239	100.216853	5.084285	0.464194	16.062355	11.398780	-25.776549	-42.758451	28.239395	6.682865	43.556151	29.356128	23.989997	3.886619	43.065081	27.898873	12.525346	-4.186627	50.737147	34.363418	0.790180	-7.726725	59.288690	40.967069
-0.465000	-160.147433	-5.066637	-73.570646	0.079300	-0.178578	-0.019628	100.273297	5.271682	0.284770	16.029058	11.560960	-25.783484	-42.770599	28.226690	6.695199	43.499960	29.317718	23.994572	3.881988	43.075995	27.897067	12.635067	-4.183137	50.604732	34.322573	0.931868	-7.762814	59.247582	40.970407
-0.455000	-160.147433	-5.066637	-73.570646	0.078716	-0.178023	-0.020042	100.347822	5.468044	0.051479	15.998844	11.788013	-25.828245	-42.879733	28.211051	6.701355	43.467514	29.299506	23.980340	3.876725	43.118724	27.918784	12.723443	-4.184582	50.522752	34.319523	1.064116	-7.781357	59.220267	40.996007
-0.445000	-160.147433	-5.066637	-73.570646	0.078040	-0.177459	-0.020474	100.451954	5.668052	-0.237355	15.975283	12.065979	-25.888909	-43.064864	28.182735	6.695508	43.469220	29.306504	23.937340	3.870777	43.193896	27.964913	12.772370	-4.191520	50.511718	34.357395	1.165497	-7.768376	59.206279	41.032075
-0.435000	-160.147433	-5.066637	-73.570646	0.077277	-0.176920	-0.020917	100.605652	5.862085	-0.571373	15.968225	12.376215	-25.924308	-43.267714	28.126411	6.672563	43.497340	29.330658	23.854330	3.863273	43.285988	28.025583	12.767072	-4.201881	50.562817	34.421679	1.219566	-7.720495	59.199206	41.059023
-0.425000	-160.147433	-5.066637	-73.570646	0.076436	-0.176433	-0.021361	100.829828	6.038499	-0.926199	15.990891	12.699955	-25.890704	-43.413849	28.023364	6.630844	43.530027	29.355209	23.721510	3.853018	43.366410	28.082681	12.697228	-4.211661	50.641013	34.485145	1.215094	-7.647115	59.193179	41.058142
-0.415000	-160.147433	-5.066637	-73.570646	0.075537	-0.176017	-0.021798	101.137176	6.187575	-1.266024	16.053507	13.019018	-25.763970	-43.445953	27.856136	6.574465	43.545526	29.365314	23.534735	3.839349	43.405496	28.117175	12.560822	-4.217120	50.700252	34.518513	1.146064	-7.566304	59.188743	41.020888
-0.405000	-160.147433	-5.066637	-73.570646	0.074603	-0.175677	-0.022226	101.525838	6.305233	-1.550950	16.156120	13.315049	-25.555440	-43.352057	27.615750	6.514138	43.540285	29.359870	23.301161	3.823149	43.389743	28.118671	12.371428	-4.217237	50.705503	34.503093	1.015730	-7.497558	59.194283	40.954922
-0.395000	-160.147433	-5.066637	-73.570646	0.073661	-0.175404	-0.022644	101.978136	6.394754	-1.747152	16.284234	13.570481	-25.311988	-43.173269	27.309264	6.465564	43.540674	29.357884	23.044509	3.807611	43.335871	28.092855	12.164982	-4.214867	50.652869	34.440933	0.844702	-7.456287	59.222563	40.884687
-0.385000	-160.147433	-5.066637	-73.570646	0.072739	-0.175181	-0.023064	102.464376	6.466366	-1.836304	16.409949	13.771714	-25.098732	-42.986354	26.963591	6.445250	43.599318	29.394653	22.806648	3.798185	43.291671	28.062370	11.999699	-4.215646	50.577453	34.358006	0.676705	-7.452526	59.285072	40.846154
-0.375000	-160.147433	-5.066637	-73.570646	0.071863	-0.174980	-0.023505	102.950243	6.535953	-1.820529	16.498976	13.912922	-24.971864	-42.870087	26.622410	6.464641	43.774072	29.507682	22.642587	3.801248	43.318411	28.059117	11.945144	-4.224990	50.541561	34.297368	0.573316	-7.492005	59.387643	40.876630
-0.365000	-160.147433	-5.066637	-73.570646	0.071052	-0.174767	-0.023993	103.405274	6.623940	-1.720827	16.521236	13.998961	-24.955017	-42.872847	26.336427	6.524773	44.097291	29.717849	22.608367	3.821622	43.460364	28.110594	12.062287	-4.244790	50.604947	34.303032	0.594436	-7.575670	59.529391	41.002004
-0.355000	-160.147433	-5.066637	-73.570646	0.070311	-0.174506	-0.024557	103.809267	6.753978	-1.569725	16.460978	14.046117	-25.031593	-42.997498	26.150563	6.614376	44.550956	30.015286	22.744607	3.860033	43.717808	28.227040	12.381872	-4.271786	50.791058	34.400617	0.772057	-7.696379	59.704602	41.225645
-0.345000	-160.147433	-5.066637	-73.570646	0.069629	-0.174158	-0.025225	104.154100	6.950579	-1.401658	16.322208	14.079431	-25.157057	-43.209010	26.092513	6.713398	45.063998	30.359105	23.061034	3.912226	44.041870	28.396722	12.890501	-4.298628	51.069631	34.584272	1.092825	-7.836166	59.905180	41.523948
